<svg xmlns="http://www.w3.org/2000/svg" viewBox="0 0 24 24"><path d="M12.063 1.688c-5.802 0-10.5 4.715-10.5 10.538 0 4.664 3.005 8.603 7.179 9.998.525.093.721-.223.721-.5 0-.25-.013-1.08-.013-1.963-2.637.488-3.32-.645-3.53-1.237-.118-.303-.63-1.24-1.077-1.49-.367-.197-.892-.685-.013-.698.827-.012 1.418.765 1.615 1.08.945 1.595 2.455 1.146 3.058.87.092-.685.367-1.146.67-1.41-2.337-.263-4.778-1.172-4.778-5.203 0-1.146.407-2.094 1.076-2.832-.105-.264-.472-1.344.105-2.793 0 0 .88-.277 2.888 1.08a9.698 9.698 0 0 1 2.625-.355c.892 0 1.785.119 2.625.355 2.009-1.37 2.887-1.08 2.887-1.08.578 1.449.21 2.53.105 2.793.67.738 1.077 1.673 1.077 2.832 0 4.044-2.455 4.94-4.791 5.203.38.33.708.962.708 1.95 0 1.41-.012 2.542-.012 2.898 0 .277.197.607.72.501a10.552 10.552 0 0 0 7.155-9.999c0-5.823-4.699-10.539-10.5-10.539z" style="stroke-width:.914729"/></svg>
