<svg xmlns="http://www.w3.org/2000/svg" viewBox="0 0 24 24"><path d="M20.181 2.375H3.82a1.444 1.444 0 0 0-1.444 1.444V20.18a1.444 1.444 0 0 0 1.444 1.444H20.18a1.444 1.444 0 0 0 1.444-1.444V3.82a1.444 1.444 0 0 0-1.444-1.444ZM8.15 18.738H5.262v-8.663H8.15ZM6.706 8.39A1.684 1.684 0 1 1 8.44 6.706a1.713 1.713 0 0 1-1.733 1.685Zm12.031 10.347H15.85v-4.563c0-1.366-.578-1.857-1.328-1.857a1.675 1.675 0 0 0-1.56 1.79.635.635 0 0 0 0 .135v4.495h-2.887v-8.663h2.791v1.251a2.993 2.993 0 0 1 2.599-1.347c1.492 0 3.234.828 3.234 3.523z" style="stroke-width:.9625"/></svg>